<mxfile host="app.diagrams.net" agent="Mozilla/5.0 (Macintosh; Intel Mac OS X 10_15_7) AppleWebKit/537.36 (KHTML, like Gecko) Chrome/131.0.0.0 Safari/537.36" version="25.0.3">
  <diagram name="第 1 页" id="W1NaZzGZs_vzOwhi8Zwm">
    <mxGraphModel dx="1001" dy="620" grid="1" gridSize="10" guides="1" tooltips="1" connect="1" arrows="1" fold="1" page="1" pageScale="1" pageWidth="3200" pageHeight="2400" math="0" shadow="0">
      <root>
        <mxCell id="0" />
        <mxCell id="1" parent="0" />
        <mxCell id="Ddw5Nik--lQp2w7nQWTA-5" value="" style="rounded=0;whiteSpace=wrap;html=1;hachureGap=4;fontFamily=Architects Daughter;fontSource=https%3A%2F%2Ffonts.googleapis.com%2Fcss%3Ffamily%3DArchitects%2BDaughter;fillColor=#e1d5e7;strokeColor=#9673a6;" vertex="1" parent="1">
          <mxGeometry x="1120" y="680" width="250" height="170" as="geometry" />
        </mxCell>
        <mxCell id="Ddw5Nik--lQp2w7nQWTA-7" value="DirectoryA" style="rounded=0;whiteSpace=wrap;html=1;hachureGap=4;fontFamily=Architects Daughter;fontSource=https%3A%2F%2Ffonts.googleapis.com%2Fcss%3Ffamily%3DArchitects%2BDaughter;fillColor=#f8cecc;strokeColor=#b85450;" vertex="1" parent="1">
          <mxGeometry x="1130" y="690" width="230" height="40" as="geometry" />
        </mxCell>
        <mxCell id="Ddw5Nik--lQp2w7nQWTA-9" value="DirectoryC" style="rounded=0;whiteSpace=wrap;html=1;hachureGap=4;fontFamily=Architects Daughter;fontSource=https%3A%2F%2Ffonts.googleapis.com%2Fcss%3Ffamily%3DArchitects%2BDaughter;fillColor=#f8cecc;strokeColor=#b85450;" vertex="1" parent="1">
          <mxGeometry x="1130" y="800" width="230" height="40" as="geometry" />
        </mxCell>
        <mxCell id="Ddw5Nik--lQp2w7nQWTA-10" value="" style="rounded=0;whiteSpace=wrap;html=1;hachureGap=4;fontFamily=Architects Daughter;fontSource=https%3A%2F%2Ffonts.googleapis.com%2Fcss%3Ffamily%3DArchitects%2BDaughter;fillColor=#e1d5e7;strokeColor=#9673a6;" vertex="1" parent="1">
          <mxGeometry x="790" y="960" width="250" height="170" as="geometry" />
        </mxCell>
        <mxCell id="Ddw5Nik--lQp2w7nQWTA-12" value="DirectoryB" style="rounded=0;whiteSpace=wrap;html=1;hachureGap=4;fontFamily=Architects Daughter;fontSource=https%3A%2F%2Ffonts.googleapis.com%2Fcss%3Ffamily%3DArchitects%2BDaughter;fillColor=#f8cecc;strokeColor=#b85450;" vertex="1" parent="1">
          <mxGeometry x="800" y="1025" width="230" height="40" as="geometry" />
        </mxCell>
        <mxCell id="Ddw5Nik--lQp2w7nQWTA-13" value="DirectoryC" style="rounded=0;whiteSpace=wrap;html=1;hachureGap=4;fontFamily=Architects Daughter;fontSource=https%3A%2F%2Ffonts.googleapis.com%2Fcss%3Ffamily%3DArchitects%2BDaughter;fillColor=#f8cecc;strokeColor=#b85450;" vertex="1" parent="1">
          <mxGeometry x="800" y="1080" width="230" height="40" as="geometry" />
        </mxCell>
        <mxCell id="Ddw5Nik--lQp2w7nQWTA-14" value="" style="rounded=0;whiteSpace=wrap;html=1;hachureGap=4;fontFamily=Architects Daughter;fontSource=https%3A%2F%2Ffonts.googleapis.com%2Fcss%3Ffamily%3DArchitects%2BDaughter;fillColor=#e1d5e7;strokeColor=#9673a6;" vertex="1" parent="1">
          <mxGeometry x="1475" y="960" width="250" height="170" as="geometry" />
        </mxCell>
        <mxCell id="Ddw5Nik--lQp2w7nQWTA-15" value="DirectoryA" style="rounded=0;whiteSpace=wrap;html=1;hachureGap=4;fontFamily=Architects Daughter;fontSource=https%3A%2F%2Ffonts.googleapis.com%2Fcss%3Ffamily%3DArchitects%2BDaughter;fillColor=#f8cecc;strokeColor=#b85450;" vertex="1" parent="1">
          <mxGeometry x="1485" y="970" width="230" height="40" as="geometry" />
        </mxCell>
        <mxCell id="Ddw5Nik--lQp2w7nQWTA-16" value="DirectoryB" style="rounded=0;whiteSpace=wrap;html=1;hachureGap=4;fontFamily=Architects Daughter;fontSource=https%3A%2F%2Ffonts.googleapis.com%2Fcss%3Ffamily%3DArchitects%2BDaughter;fillColor=#f8cecc;strokeColor=#b85450;" vertex="1" parent="1">
          <mxGeometry x="1485" y="1025" width="230" height="40" as="geometry" />
        </mxCell>
        <mxCell id="Ddw5Nik--lQp2w7nQWTA-18" value="" style="shape=flexArrow;endArrow=classic;startArrow=classic;html=1;rounded=0;sketch=1;hachureGap=4;jiggle=2;curveFitting=1;fontFamily=Architects Daughter;fontSource=https%3A%2F%2Ffonts.googleapis.com%2Fcss%3Ffamily%3DArchitects%2BDaughter;width=6;endSize=7.56;entryX=0;entryY=0.5;entryDx=0;entryDy=0;exitX=1;exitY=0.5;exitDx=0;exitDy=0;" edge="1" parent="1" source="Ddw5Nik--lQp2w7nQWTA-13" target="Ddw5Nik--lQp2w7nQWTA-9">
          <mxGeometry width="100" height="100" relative="1" as="geometry">
            <mxPoint x="1030" y="1102" as="sourcePoint" />
            <mxPoint x="1460" y="1098" as="targetPoint" />
          </mxGeometry>
        </mxCell>
        <mxCell id="Ddw5Nik--lQp2w7nQWTA-19" value="" style="shape=flexArrow;endArrow=classic;startArrow=classic;html=1;rounded=0;sketch=1;hachureGap=4;jiggle=2;curveFitting=1;fontFamily=Architects Daughter;fontSource=https%3A%2F%2Ffonts.googleapis.com%2Fcss%3Ffamily%3DArchitects%2BDaughter;width=6;endSize=7.56;entryX=0;entryY=0.5;entryDx=0;entryDy=0;exitX=1;exitY=0.5;exitDx=0;exitDy=0;" edge="1" parent="1" source="Ddw5Nik--lQp2w7nQWTA-12" target="Ddw5Nik--lQp2w7nQWTA-16">
          <mxGeometry width="100" height="100" relative="1" as="geometry">
            <mxPoint x="1100" y="1120" as="sourcePoint" />
            <mxPoint x="1200" y="840" as="targetPoint" />
          </mxGeometry>
        </mxCell>
        <mxCell id="Ddw5Nik--lQp2w7nQWTA-20" value="" style="shape=flexArrow;endArrow=classic;startArrow=classic;html=1;rounded=0;sketch=1;hachureGap=4;jiggle=2;curveFitting=1;fontFamily=Architects Daughter;fontSource=https%3A%2F%2Ffonts.googleapis.com%2Fcss%3Ffamily%3DArchitects%2BDaughter;width=6;endSize=7.56;exitX=1;exitY=0.5;exitDx=0;exitDy=0;entryX=0;entryY=0.5;entryDx=0;entryDy=0;" edge="1" parent="1" source="Ddw5Nik--lQp2w7nQWTA-7" target="Ddw5Nik--lQp2w7nQWTA-15">
          <mxGeometry width="100" height="100" relative="1" as="geometry">
            <mxPoint x="1210" y="760" as="sourcePoint" />
            <mxPoint x="1665" y="760" as="targetPoint" />
          </mxGeometry>
        </mxCell>
        <mxCell id="Ddw5Nik--lQp2w7nQWTA-21" value="&lt;font style=&quot;font-size: 14px;&quot;&gt;Syncthing&lt;/font&gt;" style="text;html=1;align=center;verticalAlign=middle;whiteSpace=wrap;rounded=0;fontFamily=Architects Daughter;fontSource=https%3A%2F%2Ffonts.googleapis.com%2Fcss%3Ffamily%3DArchitects%2BDaughter;" vertex="1" parent="1">
          <mxGeometry x="1010" y="900" width="80" height="30" as="geometry" />
        </mxCell>
        <mxCell id="Ddw5Nik--lQp2w7nQWTA-23" value="&lt;font style=&quot;font-size: 14px;&quot;&gt;Syncthing&lt;/font&gt;" style="text;html=1;align=center;verticalAlign=middle;whiteSpace=wrap;rounded=0;fontFamily=Architects Daughter;fontSource=https%3A%2F%2Ffonts.googleapis.com%2Fcss%3Ffamily%3DArchitects%2BDaughter;" vertex="1" parent="1">
          <mxGeometry x="1205" y="1010" width="80" height="30" as="geometry" />
        </mxCell>
        <mxCell id="Ddw5Nik--lQp2w7nQWTA-24" value="&lt;font style=&quot;font-size: 14px;&quot;&gt;Syncthing&lt;/font&gt;" style="text;html=1;align=center;verticalAlign=middle;whiteSpace=wrap;rounded=0;fontFamily=Architects Daughter;fontSource=https%3A%2F%2Ffonts.googleapis.com%2Fcss%3Ffamily%3DArchitects%2BDaughter;" vertex="1" parent="1">
          <mxGeometry x="1440" y="830" width="80" height="30" as="geometry" />
        </mxCell>
        <mxCell id="Ddw5Nik--lQp2w7nQWTA-41" style="edgeStyle=orthogonalEdgeStyle;rounded=0;sketch=1;hachureGap=4;jiggle=2;curveFitting=1;orthogonalLoop=1;jettySize=auto;html=1;exitX=1;exitY=0.5;exitDx=0;exitDy=0;fontFamily=Architects Daughter;fontSource=https%3A%2F%2Ffonts.googleapis.com%2Fcss%3Ffamily%3DArchitects%2BDaughter;" edge="1" parent="1" source="Ddw5Nik--lQp2w7nQWTA-32" target="Ddw5Nik--lQp2w7nQWTA-38">
          <mxGeometry relative="1" as="geometry" />
        </mxCell>
        <mxCell id="Ddw5Nik--lQp2w7nQWTA-44" value="FRP-内网穿透" style="edgeLabel;html=1;align=center;verticalAlign=middle;resizable=0;points=[];sketch=1;hachureGap=4;jiggle=2;curveFitting=1;fontFamily=Architects Daughter;fontSource=https%3A%2F%2Ffonts.googleapis.com%2Fcss%3Ffamily%3DArchitects%2BDaughter;" vertex="1" connectable="0" parent="Ddw5Nik--lQp2w7nQWTA-41">
          <mxGeometry x="0.1803" y="4" relative="1" as="geometry">
            <mxPoint as="offset" />
          </mxGeometry>
        </mxCell>
        <mxCell id="Ddw5Nik--lQp2w7nQWTA-32" value="FRP-ClientA【内网穿透】" style="rounded=1;whiteSpace=wrap;html=1;hachureGap=4;fontFamily=Architects Daughter;fontSource=https%3A%2F%2Ffonts.googleapis.com%2Fcss%3Ffamily%3DArchitects%2BDaughter;fillColor=#ffe6cc;strokeColor=#d79b00;" vertex="1" parent="1">
          <mxGeometry x="1120" y="640" width="250" height="40" as="geometry" />
        </mxCell>
        <mxCell id="Ddw5Nik--lQp2w7nQWTA-42" style="edgeStyle=orthogonalEdgeStyle;rounded=0;sketch=1;hachureGap=4;jiggle=2;curveFitting=1;orthogonalLoop=1;jettySize=auto;html=1;exitX=1;exitY=0.5;exitDx=0;exitDy=0;entryX=0;entryY=0.5;entryDx=0;entryDy=0;fontFamily=Architects Daughter;fontSource=https%3A%2F%2Ffonts.googleapis.com%2Fcss%3Ffamily%3DArchitects%2BDaughter;" edge="1" parent="1" source="Ddw5Nik--lQp2w7nQWTA-33" target="Ddw5Nik--lQp2w7nQWTA-39">
          <mxGeometry relative="1" as="geometry">
            <Array as="points">
              <mxPoint x="1410" y="940" />
              <mxPoint x="1410" y="740" />
            </Array>
          </mxGeometry>
        </mxCell>
        <mxCell id="Ddw5Nik--lQp2w7nQWTA-45" value="FRP-内网穿透" style="edgeLabel;html=1;align=center;verticalAlign=middle;resizable=0;points=[];sketch=1;hachureGap=4;jiggle=2;curveFitting=1;fontFamily=Architects Daughter;fontSource=https%3A%2F%2Ffonts.googleapis.com%2Fcss%3Ffamily%3DArchitects%2BDaughter;" vertex="1" connectable="0" parent="Ddw5Nik--lQp2w7nQWTA-42">
          <mxGeometry x="0.6894" y="3" relative="1" as="geometry">
            <mxPoint as="offset" />
          </mxGeometry>
        </mxCell>
        <mxCell id="Ddw5Nik--lQp2w7nQWTA-33" value="FRP-ClientB【内网穿透】" style="rounded=1;whiteSpace=wrap;html=1;hachureGap=4;fontFamily=Architects Daughter;fontSource=https%3A%2F%2Ffonts.googleapis.com%2Fcss%3Ffamily%3DArchitects%2BDaughter;fillColor=#ffe6cc;strokeColor=#d79b00;" vertex="1" parent="1">
          <mxGeometry x="790" y="920" width="250" height="40" as="geometry" />
        </mxCell>
        <mxCell id="Ddw5Nik--lQp2w7nQWTA-43" style="edgeStyle=orthogonalEdgeStyle;rounded=0;sketch=1;hachureGap=4;jiggle=2;curveFitting=1;orthogonalLoop=1;jettySize=auto;html=1;exitX=0.5;exitY=0;exitDx=0;exitDy=0;entryX=0;entryY=0.5;entryDx=0;entryDy=0;fontFamily=Architects Daughter;fontSource=https%3A%2F%2Ffonts.googleapis.com%2Fcss%3Ffamily%3DArchitects%2BDaughter;" edge="1" parent="1" source="Ddw5Nik--lQp2w7nQWTA-34" target="Ddw5Nik--lQp2w7nQWTA-40">
          <mxGeometry relative="1" as="geometry" />
        </mxCell>
        <mxCell id="Ddw5Nik--lQp2w7nQWTA-46" value="FRP-内网穿透" style="edgeLabel;html=1;align=center;verticalAlign=middle;resizable=0;points=[];sketch=1;hachureGap=4;jiggle=2;curveFitting=1;fontFamily=Architects Daughter;fontSource=https%3A%2F%2Ffonts.googleapis.com%2Fcss%3Ffamily%3DArchitects%2BDaughter;" vertex="1" connectable="0" parent="Ddw5Nik--lQp2w7nQWTA-43">
          <mxGeometry x="-0.4857" y="3" relative="1" as="geometry">
            <mxPoint as="offset" />
          </mxGeometry>
        </mxCell>
        <mxCell id="Ddw5Nik--lQp2w7nQWTA-34" value="FRP-ClientC【内网穿透】" style="rounded=1;whiteSpace=wrap;html=1;hachureGap=4;fontFamily=Architects Daughter;fontSource=https%3A%2F%2Ffonts.googleapis.com%2Fcss%3Ffamily%3DArchitects%2BDaughter;fillColor=#ffe6cc;strokeColor=#d79b00;" vertex="1" parent="1">
          <mxGeometry x="1475" y="920" width="250" height="40" as="geometry" />
        </mxCell>
        <mxCell id="Ddw5Nik--lQp2w7nQWTA-35" value="" style="rounded=1;whiteSpace=wrap;html=1;sketch=1;hachureGap=4;jiggle=2;curveFitting=1;fontFamily=Architects Daughter;fontSource=https%3A%2F%2Ffonts.googleapis.com%2Fcss%3Ffamily%3DArchitects%2BDaughter;fillColor=#dae8fc;strokeColor=#6c8ebf;" vertex="1" parent="1">
          <mxGeometry x="1640" y="620" width="310" height="200" as="geometry" />
        </mxCell>
        <mxCell id="Ddw5Nik--lQp2w7nQWTA-36" value="&lt;b&gt;&lt;font style=&quot;font-size: 14px;&quot;&gt;FRP-Server&lt;/font&gt;&lt;/b&gt;" style="text;html=1;align=center;verticalAlign=middle;whiteSpace=wrap;rounded=0;fontFamily=Architects Daughter;fontSource=https%3A%2F%2Ffonts.googleapis.com%2Fcss%3Ffamily%3DArchitects%2BDaughter;" vertex="1" parent="1">
          <mxGeometry x="1645" y="630" width="300" height="30" as="geometry" />
        </mxCell>
        <mxCell id="Ddw5Nik--lQp2w7nQWTA-38" value="POrt-10001[ssh]" style="rounded=1;whiteSpace=wrap;html=1;sketch=1;hachureGap=4;jiggle=2;curveFitting=1;fontFamily=Architects Daughter;fontSource=https%3A%2F%2Ffonts.googleapis.com%2Fcss%3Ffamily%3DArchitects%2BDaughter;" vertex="1" parent="1">
          <mxGeometry x="1645" y="670" width="305" height="40" as="geometry" />
        </mxCell>
        <mxCell id="Ddw5Nik--lQp2w7nQWTA-39" value="POrt-10002[ssh]" style="rounded=1;whiteSpace=wrap;html=1;sketch=1;hachureGap=4;jiggle=2;curveFitting=1;fontFamily=Architects Daughter;fontSource=https%3A%2F%2Ffonts.googleapis.com%2Fcss%3Ffamily%3DArchitects%2BDaughter;" vertex="1" parent="1">
          <mxGeometry x="1645" y="720" width="305" height="40" as="geometry" />
        </mxCell>
        <mxCell id="Ddw5Nik--lQp2w7nQWTA-40" value="POrt-10003[ssh]" style="rounded=1;whiteSpace=wrap;html=1;sketch=1;hachureGap=4;jiggle=2;curveFitting=1;fontFamily=Architects Daughter;fontSource=https%3A%2F%2Ffonts.googleapis.com%2Fcss%3Ffamily%3DArchitects%2BDaughter;" vertex="1" parent="1">
          <mxGeometry x="1645" y="770" width="305" height="40" as="geometry" />
        </mxCell>
        <mxCell id="Ddw5Nik--lQp2w7nQWTA-48" value="" style="rounded=1;whiteSpace=wrap;html=1;sketch=1;hachureGap=4;jiggle=2;curveFitting=1;fontFamily=Architects Daughter;fontSource=https%3A%2F%2Ffonts.googleapis.com%2Fcss%3Ffamily%3DArchitects%2BDaughter;fillColor=#d5e8d4;strokeColor=#82b366;" vertex="1" parent="1">
          <mxGeometry x="2080" y="620" width="330" height="200" as="geometry" />
        </mxCell>
        <mxCell id="Ddw5Nik--lQp2w7nQWTA-49" value="&lt;span style=&quot;font-size: 14px;&quot;&gt;&lt;b&gt;FileStash&lt;/b&gt;&lt;/span&gt;" style="text;html=1;align=center;verticalAlign=middle;whiteSpace=wrap;rounded=0;fontFamily=Architects Daughter;fontSource=https%3A%2F%2Ffonts.googleapis.com%2Fcss%3Ffamily%3DArchitects%2BDaughter;" vertex="1" parent="1">
          <mxGeometry x="2095" y="630" width="300" height="30" as="geometry" />
        </mxCell>
        <mxCell id="Ddw5Nik--lQp2w7nQWTA-53" style="edgeStyle=orthogonalEdgeStyle;rounded=0;sketch=1;hachureGap=4;jiggle=2;curveFitting=1;orthogonalLoop=1;jettySize=auto;html=1;exitX=0.5;exitY=0.5;exitDx=0;exitDy=0;exitPerimeter=0;entryX=1;entryY=0.5;entryDx=0;entryDy=0;fontFamily=Architects Daughter;fontSource=https%3A%2F%2Ffonts.googleapis.com%2Fcss%3Ffamily%3DArchitects%2BDaughter;" edge="1" parent="1" source="Ddw5Nik--lQp2w7nQWTA-50" target="Ddw5Nik--lQp2w7nQWTA-48">
          <mxGeometry relative="1" as="geometry" />
        </mxCell>
        <mxCell id="Ddw5Nik--lQp2w7nQWTA-50" value="Actor" style="shape=umlActor;verticalLabelPosition=bottom;verticalAlign=top;html=1;outlineConnect=0;sketch=1;hachureGap=4;jiggle=2;curveFitting=1;fontFamily=Architects Daughter;fontSource=https%3A%2F%2Ffonts.googleapis.com%2Fcss%3Ffamily%3DArchitects%2BDaughter;fillColor=#ffe6cc;strokeColor=#d79b00;" vertex="1" parent="1">
          <mxGeometry x="2610" y="640" width="70" height="160" as="geometry" />
        </mxCell>
        <mxCell id="Ddw5Nik--lQp2w7nQWTA-58" style="edgeStyle=orthogonalEdgeStyle;rounded=0;sketch=1;hachureGap=4;jiggle=2;curveFitting=1;orthogonalLoop=1;jettySize=auto;html=1;exitX=0;exitY=0.5;exitDx=0;exitDy=0;entryX=1;entryY=0.5;entryDx=0;entryDy=0;fontFamily=Architects Daughter;fontSource=https%3A%2F%2Ffonts.googleapis.com%2Fcss%3Ffamily%3DArchitects%2BDaughter;" edge="1" parent="1" source="Ddw5Nik--lQp2w7nQWTA-55" target="Ddw5Nik--lQp2w7nQWTA-38">
          <mxGeometry relative="1" as="geometry" />
        </mxCell>
        <mxCell id="Ddw5Nik--lQp2w7nQWTA-55" value="POrt-10001" style="rounded=1;whiteSpace=wrap;html=1;sketch=1;hachureGap=4;jiggle=2;curveFitting=1;fontFamily=Architects Daughter;fontSource=https%3A%2F%2Ffonts.googleapis.com%2Fcss%3Ffamily%3DArchitects%2BDaughter;" vertex="1" parent="1">
          <mxGeometry x="2090" y="670" width="305" height="40" as="geometry" />
        </mxCell>
        <mxCell id="Ddw5Nik--lQp2w7nQWTA-59" style="edgeStyle=orthogonalEdgeStyle;rounded=0;sketch=1;hachureGap=4;jiggle=2;curveFitting=1;orthogonalLoop=1;jettySize=auto;html=1;exitX=0;exitY=0.5;exitDx=0;exitDy=0;entryX=1;entryY=0.5;entryDx=0;entryDy=0;fontFamily=Architects Daughter;fontSource=https%3A%2F%2Ffonts.googleapis.com%2Fcss%3Ffamily%3DArchitects%2BDaughter;" edge="1" parent="1" source="Ddw5Nik--lQp2w7nQWTA-56" target="Ddw5Nik--lQp2w7nQWTA-39">
          <mxGeometry relative="1" as="geometry" />
        </mxCell>
        <mxCell id="Ddw5Nik--lQp2w7nQWTA-56" value="POrt-10002" style="rounded=1;whiteSpace=wrap;html=1;sketch=1;hachureGap=4;jiggle=2;curveFitting=1;fontFamily=Architects Daughter;fontSource=https%3A%2F%2Ffonts.googleapis.com%2Fcss%3Ffamily%3DArchitects%2BDaughter;" vertex="1" parent="1">
          <mxGeometry x="2090" y="720" width="305" height="40" as="geometry" />
        </mxCell>
        <mxCell id="Ddw5Nik--lQp2w7nQWTA-60" style="edgeStyle=orthogonalEdgeStyle;rounded=0;sketch=1;hachureGap=4;jiggle=2;curveFitting=1;orthogonalLoop=1;jettySize=auto;html=1;exitX=0;exitY=0.5;exitDx=0;exitDy=0;entryX=1;entryY=0.5;entryDx=0;entryDy=0;fontFamily=Architects Daughter;fontSource=https%3A%2F%2Ffonts.googleapis.com%2Fcss%3Ffamily%3DArchitects%2BDaughter;" edge="1" parent="1" source="Ddw5Nik--lQp2w7nQWTA-57" target="Ddw5Nik--lQp2w7nQWTA-40">
          <mxGeometry relative="1" as="geometry" />
        </mxCell>
        <mxCell id="Ddw5Nik--lQp2w7nQWTA-57" value="POrt-10003" style="rounded=1;whiteSpace=wrap;html=1;sketch=1;hachureGap=4;jiggle=2;curveFitting=1;fontFamily=Architects Daughter;fontSource=https%3A%2F%2Ffonts.googleapis.com%2Fcss%3Ffamily%3DArchitects%2BDaughter;" vertex="1" parent="1">
          <mxGeometry x="2092.5" y="770" width="305" height="40" as="geometry" />
        </mxCell>
        <mxCell id="Ddw5Nik--lQp2w7nQWTA-61" value="&lt;font style=&quot;font-size: 14px;&quot;&gt;浏览文件&lt;/font&gt;" style="text;html=1;align=center;verticalAlign=middle;whiteSpace=wrap;rounded=0;fontFamily=Architects Daughter;fontSource=https%3A%2F%2Ffonts.googleapis.com%2Fcss%3Ffamily%3DArchitects%2BDaughter;" vertex="1" parent="1">
          <mxGeometry x="2490" y="700" width="60" height="30" as="geometry" />
        </mxCell>
      </root>
    </mxGraphModel>
  </diagram>
</mxfile>
